{
    "asset" : {
        "generator" : "Khronos glTF Blender I/O v1.7.33",
        "version" : "2.0"
    },
    "scene" : 0,
    "scenes" : [
        {
            "extras" : {
                "vr_landmarks" : [
                    {
                        "type" : 0,
                        "base_scale" : 1.0
                    }
                ],
                "skinify" : {
                    "connect_mesh" : 0,
                    "connect_parents" : 0,
                    "generate_all" : 0,
                    "thickness" : 0.800000011920929,
                    "finger_thickness" : 0.25,
                    "apply_mod" : 1,
                    "parent_armature" : 1,
                    "sub_level" : 1
                },
                "keentools_fb_settings" : {},
                "virtucamera" : {},
                "by_tool" : {},
                "ssgi_tool" : {},
                "print_3d" : {},
                "scene_check_set" : {},
                "b_export" : 1,
                "export_path" : "C:\\Users\\julie\\OneDrive\\Documents\\JESSIK\\",
                "s_output" : "exporting..."
            },
            "name" : "Scene",
            "nodes" : [
                0
            ]
        }
    ],
    "nodes" : [
        {
            "mesh" : 0,
            "name" : "arbre 2",
            "rotation" : [
                0.2831791639328003,
                -0.6479271650314331,
                0.6479272246360779,
                0.2831791639328003
            ],
            "scale" : [
                0.250487744808197,
                0.250487744808197,
                0.250487744808197
            ]
        }
    ],
    "materials" : [
        {
            "doubleSided" : true,
            "name" : "Material.052",
            "pbrMetallicRoughness" : {
                "baseColorFactor" : [
                    0.1121549978852272,
                    0.08642545342445374,
                    0.06943730264902115,
                    1
                ],
                "metallicFactor" : 0,
                "roughnessFactor" : 0.5
            }
        }
    ],
    "meshes" : [
        {
            "name" : "Cylinder",
            "primitives" : [
                {
                    "attributes" : {
                        "POSITION" : 0,
                        "NORMAL" : 1,
                        "TEXCOORD_0" : 2
                    },
                    "indices" : 3,
                    "material" : 0
                }
            ]
        }
    ],
    "accessors" : [
        {
            "bufferView" : 0,
            "componentType" : 5126,
            "count" : 2078,
            "max" : [
                1.226594090461731,
                3.083616256713867,
                1.1649867296218872
            ],
            "min" : [
                -1.1129016876220703,
                -3.1834867000579834,
                -2.0042359828948975
            ],
            "type" : "VEC3"
        },
        {
            "bufferView" : 1,
            "componentType" : 5126,
            "count" : 2078,
            "type" : "VEC3"
        },
        {
            "bufferView" : 2,
            "componentType" : 5126,
            "count" : 2078,
            "type" : "VEC2"
        },
        {
            "bufferView" : 3,
            "componentType" : 5123,
            "count" : 3126,
            "type" : "SCALAR"
        }
    ],
    "bufferViews" : [
        {
            "buffer" : 0,
            "byteLength" : 24936,
            "byteOffset" : 0
        },
        {
            "buffer" : 0,
            "byteLength" : 24936,
            "byteOffset" : 24936
        },
        {
            "buffer" : 0,
            "byteLength" : 16624,
            "byteOffset" : 49872
        },
        {
            "buffer" : 0,
            "byteLength" : 6252,
            "byteOffset" : 66496
        }
    ],
    "buffers" : [
        {
            "byteLength" : 72748,
            "uri" : "data:application/octet-stream;base64,"
        }
    ]
}
