{
    "asset" : {
        "generator" : "Khronos glTF Blender I/O v1.7.33",
        "version" : "2.0"
    },
    "scene" : 0,
    "scenes" : [
        {
            "extras" : {
                "vr_landmarks" : [
                    {
                        "type" : 0,
                        "base_scale" : 1.0
                    }
                ],
                "skinify" : {
                    "connect_mesh" : 0,
                    "connect_parents" : 0,
                    "generate_all" : 0,
                    "thickness" : 0.800000011920929,
                    "finger_thickness" : 0.25,
                    "apply_mod" : 1,
                    "parent_armature" : 1,
                    "sub_level" : 1
                },
                "keentools_fb_settings" : {},
                "virtucamera" : {},
                "by_tool" : {},
                "ssgi_tool" : {},
                "print_3d" : {},
                "scene_check_set" : {},
                "b_export" : 1,
                "export_path" : "C:\\Users\\julie\\OneDrive\\Documents\\JESSIK\\",
                "s_output" : "exporting..."
            },
            "name" : "Scene",
            "nodes" : [
                0
            ]
        }
    ],
    "nodes" : [
        {
            "mesh" : 0,
            "name" : "Cube.029",
            "rotation" : [
                0.06697991490364075,
                0.6998623013496399,
                0.7083838582038879,
                -0.06244014948606491
            ],
            "scale" : [
                0.0006803781725466251,
                0.0006803781143389642,
                0.005840078927576542
            ]
        }
    ],
    "materials" : [
        {
            "doubleSided" : true,
            "name" : "Material.068",
            "pbrMetallicRoughness" : {
                "baseColorFactor" : [
                    0.15292617678642273,
                    0.2015562802553177,
                    0.29613831639289856,
                    1
                ],
                "metallicFactor" : 0,
                "roughnessFactor" : 0.5
            }
        }
    ],
    "meshes" : [
        {
            "name" : "Cube.035",
            "primitives" : [
                {
                    "attributes" : {
                        "POSITION" : 0,
                        "NORMAL" : 1
                    },
                    "indices" : 2,
                    "material" : 0
                }
            ]
        }
    ],
    "accessors" : [
        {
            "bufferView" : 0,
            "componentType" : 5126,
            "count" : 27042,
            "max" : [
                16.99603271484375,
                6.585025787353516,
                0.9996920824050903
            ],
            "min" : [
                -44.3462028503418,
                -4.637003421783447,
                -1.0003083944320679
            ],
            "type" : "VEC3"
        },
        {
            "bufferView" : 1,
            "componentType" : 5126,
            "count" : 27042,
            "type" : "VEC3"
        },
        {
            "bufferView" : 2,
            "componentType" : 5123,
            "count" : 162240,
            "type" : "SCALAR"
        }
    ],
    "bufferViews" : [
        {
            "buffer" : 0,
            "byteLength" : 324504,
            "byteOffset" : 0
        },
        {
            "buffer" : 0,
            "byteLength" : 324504,
            "byteOffset" : 324504
        },
        {
            "buffer" : 0,
            "byteLength" : 324480,
            "byteOffset" : 649008
        }
    ],
    "buffers" : [
        {
            "byteLength" : 973488,
            "uri" : "data:application/octet-stream;base64,"
        }
    ]
}
