{
    "asset" : {
        "generator" : "Khronos glTF Blender I/O v1.7.33",
        "version" : "2.0"
    },
    "scene" : 0,
    "scenes" : [
        {
            "extras" : {
                "vr_landmarks" : [
                    {
                        "type" : 0,
                        "base_scale" : 1.0
                    }
                ],
                "skinify" : {
                    "connect_mesh" : 0,
                    "connect_parents" : 0,
                    "generate_all" : 0,
                    "thickness" : 0.800000011920929,
                    "finger_thickness" : 0.25,
                    "apply_mod" : 1,
                    "parent_armature" : 1,
                    "sub_level" : 1
                },
                "keentools_fb_settings" : {},
                "virtucamera" : {},
                "by_tool" : {},
                "ssgi_tool" : {},
                "print_3d" : {},
                "scene_check_set" : {},
                "b_export" : 1,
                "export_path" : "C:\\Users\\julie\\OneDrive\\Documents\\JESSIK\\",
                "s_output" : "exporting..."
            },
            "name" : "Scene",
            "nodes" : [
                0
            ]
        }
    ],
    "nodes" : [
        {
            "mesh" : 0,
            "name" : "Cube.025",
            "scale" : [
                0.4148763418197632,
                0.11161970347166061,
                0.4148763418197632
            ]
        }
    ],
    "materials" : [
        {
            "doubleSided" : true,
            "name" : "Material.041",
            "pbrMetallicRoughness" : {
                "baseColorFactor" : [
                    0.2915404438972473,
                    0.34932637214660645,
                    0.32131069898605347,
                    1
                ],
                "metallicFactor" : 0,
                "roughnessFactor" : 0.5
            }
        }
    ],
    "meshes" : [
        {
            "name" : "Cube.030",
            "primitives" : [
                {
                    "attributes" : {
                        "POSITION" : 0,
                        "NORMAL" : 1,
                        "TANGENT" : 2,
                        "TEXCOORD_0" : 3
                    },
                    "indices" : 4,
                    "material" : 0
                }
            ]
        }
    ],
    "accessors" : [
        {
            "bufferView" : 0,
            "componentType" : 5126,
            "count" : 398,
            "max" : [
                3.2636125087738037,
                2.9093410968780518,
                3.565707206726074
            ],
            "min" : [
                -0.581413745880127,
                -3.500653028488159,
                -1.9048736095428467
            ],
            "type" : "VEC3"
        },
        {
            "bufferView" : 1,
            "componentType" : 5126,
            "count" : 398,
            "type" : "VEC3"
        },
        {
            "bufferView" : 2,
            "componentType" : 5126,
            "count" : 398,
            "type" : "VEC4"
        },
        {
            "bufferView" : 3,
            "componentType" : 5126,
            "count" : 398,
            "type" : "VEC2"
        },
        {
            "bufferView" : 4,
            "componentType" : 5123,
            "count" : 768,
            "type" : "SCALAR"
        }
    ],
    "bufferViews" : [
        {
            "buffer" : 0,
            "byteLength" : 4776,
            "byteOffset" : 0
        },
        {
            "buffer" : 0,
            "byteLength" : 4776,
            "byteOffset" : 4776
        },
        {
            "buffer" : 0,
            "byteLength" : 6368,
            "byteOffset" : 9552
        },
        {
            "buffer" : 0,
            "byteLength" : 3184,
            "byteOffset" : 15920
        },
        {
            "buffer" : 0,
            "byteLength" : 1536,
            "byteOffset" : 19104
        }
    ],
    "buffers" : [
        {
            "byteLength" : 20640,
            "uri" : "data:application/octet-stream;base64,"
        }
    ]
}
