{
    "asset" : {
        "generator" : "Khronos glTF Blender I/O v1.7.33",
        "version" : "2.0"
    },
    "scene" : 0,
    "scenes" : [
        {
            "extras" : {
                "vr_landmarks" : [
                    {
                        "type" : 0,
                        "base_scale" : 1.0
                    }
                ],
                "skinify" : {
                    "connect_mesh" : 0,
                    "connect_parents" : 0,
                    "generate_all" : 0,
                    "thickness" : 0.800000011920929,
                    "finger_thickness" : 0.25,
                    "apply_mod" : 1,
                    "parent_armature" : 1,
                    "sub_level" : 1
                },
                "keentools_fb_settings" : {},
                "virtucamera" : {},
                "by_tool" : {},
                "ssgi_tool" : {},
                "print_3d" : {},
                "scene_check_set" : {},
                "b_export" : 1,
                "export_path" : "C:\\Users\\julie\\OneDrive\\Documents\\JESSIK\\",
                "s_output" : "exporting..."
            },
            "name" : "Scene",
            "nodes" : [
                0
            ]
        }
    ],
    "nodes" : [
        {
            "mesh" : 0,
            "name" : "Cube.043",
            "rotation" : [
                0.06697991490364075,
                0.6998623013496399,
                0.7083838582038879,
                -0.06244014948606491
            ],
            "scale" : [
                0.003958960995078087,
                0.0039589605294167995,
                0.007942543365061283
            ]
        }
    ],
    "materials" : [
        {
            "doubleSided" : true,
            "name" : "Material.056",
            "pbrMetallicRoughness" : {
                "baseColorFactor" : [
                    0.2788942754268646,
                    0.3185468912124634,
                    0.40724021196365356,
                    1
                ],
                "metallicFactor" : 0,
                "roughnessFactor" : 0.5
            }
        }
    ],
    "meshes" : [
        {
            "name" : "Cube.049",
            "primitives" : [
                {
                    "attributes" : {
                        "POSITION" : 0,
                        "NORMAL" : 1,
                        "TANGENT" : 2,
                        "TEXCOORD_0" : 3
                    },
                    "indices" : 4,
                    "material" : 0
                }
            ]
        }
    ],
    "accessors" : [
        {
            "bufferView" : 0,
            "componentType" : 5126,
            "count" : 16686,
            "max" : [
                7.753941059112549,
                7.357880592346191,
                1.0000001192092896
            ],
            "min" : [
                -7.362463474273682,
                -10.8544340133667,
                -1.0000001192092896
            ],
            "type" : "VEC3"
        },
        {
            "bufferView" : 1,
            "componentType" : 5126,
            "count" : 16686,
            "type" : "VEC3"
        },
        {
            "bufferView" : 2,
            "componentType" : 5126,
            "count" : 16686,
            "type" : "VEC4"
        },
        {
            "bufferView" : 3,
            "componentType" : 5126,
            "count" : 16686,
            "type" : "VEC2"
        },
        {
            "bufferView" : 4,
            "componentType" : 5123,
            "count" : 96000,
            "type" : "SCALAR"
        }
    ],
    "bufferViews" : [
        {
            "buffer" : 0,
            "byteLength" : 200232,
            "byteOffset" : 0
        },
        {
            "buffer" : 0,
            "byteLength" : 200232,
            "byteOffset" : 200232
        },
        {
            "buffer" : 0,
            "byteLength" : 266976,
            "byteOffset" : 400464
        },
        {
            "buffer" : 0,
            "byteLength" : 133488,
            "byteOffset" : 667440
        },
        {
            "buffer" : 0,
            "byteLength" : 192000,
            "byteOffset" : 800928
        }
    ],
    "buffers" : [
        {
            "byteLength" : 992928,
            "uri" : "data:application/octet-stream;base64,"
        }
    ]
}
