{
    "asset" : {
        "generator" : "Khronos glTF Blender I/O v1.7.33",
        "version" : "2.0"
    },
    "scene" : 0,
    "scenes" : [
        {
            "extras" : {
                "vr_landmarks" : [
                    {
                        "type" : 0,
                        "base_scale" : 1.0
                    }
                ],
                "skinify" : {
                    "connect_mesh" : 0,
                    "connect_parents" : 0,
                    "generate_all" : 0,
                    "thickness" : 0.800000011920929,
                    "finger_thickness" : 0.25,
                    "apply_mod" : 1,
                    "parent_armature" : 1,
                    "sub_level" : 1
                },
                "keentools_fb_settings" : {},
                "virtucamera" : {},
                "by_tool" : {},
                "ssgi_tool" : {},
                "print_3d" : {},
                "scene_check_set" : {},
                "b_export" : 1,
                "export_path" : "C:\\Users\\julie\\OneDrive\\Documents\\JESSIK\\",
                "s_output" : "exporting..."
            },
            "name" : "Scene",
            "nodes" : [
                0
            ]
        }
    ],
    "nodes" : [
        {
            "mesh" : 0,
            "name" : "Cube.015",
            "scale" : [
                1.0450291633605957,
                0.9029746651649475,
                1.4026802778244019
            ]
        }
    ],
    "materials" : [
        {
            "doubleSided" : true,
            "name" : "Material.042",
            "pbrMetallicRoughness" : {
                "baseColorFactor" : [
                    0.11906445026397705,
                    0.09635327756404877,
                    0.09523004293441772,
                    1
                ],
                "metallicFactor" : 0,
                "roughnessFactor" : 0.5
            }
        }
    ],
    "meshes" : [
        {
            "name" : "Cube.018",
            "primitives" : [
                {
                    "attributes" : {
                        "POSITION" : 0,
                        "NORMAL" : 1,
                        "TEXCOORD_0" : 2
                    },
                    "indices" : 3,
                    "material" : 0
                }
            ]
        }
    ],
    "accessors" : [
        {
            "bufferView" : 0,
            "componentType" : 5126,
            "count" : 778,
            "max" : [
                1.183016061782837,
                1.099743127822876,
                1.2946058511734009
            ],
            "min" : [
                -0.830066442489624,
                -0.9172937870025635,
                -0.7482981085777283
            ],
            "type" : "VEC3"
        },
        {
            "bufferView" : 1,
            "componentType" : 5126,
            "count" : 778,
            "type" : "VEC3"
        },
        {
            "bufferView" : 2,
            "componentType" : 5126,
            "count" : 778,
            "type" : "VEC2"
        },
        {
            "bufferView" : 3,
            "componentType" : 5123,
            "count" : 2430,
            "type" : "SCALAR"
        }
    ],
    "bufferViews" : [
        {
            "buffer" : 0,
            "byteLength" : 9336,
            "byteOffset" : 0
        },
        {
            "buffer" : 0,
            "byteLength" : 9336,
            "byteOffset" : 9336
        },
        {
            "buffer" : 0,
            "byteLength" : 6224,
            "byteOffset" : 18672
        },
        {
            "buffer" : 0,
            "byteLength" : 4860,
            "byteOffset" : 24896
        }
    ],
    "buffers" : [
        {
            "byteLength" : 29756,
            "uri" : "data:application/octet-stream;base64,"
        }
    ]
}
