{
    "asset" : {
        "generator" : "Khronos glTF Blender I/O v1.7.33",
        "version" : "2.0"
    },
    "scene" : 0,
    "scenes" : [
        {
            "extras" : {
                "vr_landmarks" : [
                    {
                        "type" : 0,
                        "base_scale" : 1.0
                    }
                ],
                "skinify" : {
                    "connect_mesh" : 0,
                    "connect_parents" : 0,
                    "generate_all" : 0,
                    "thickness" : 0.800000011920929,
                    "finger_thickness" : 0.25,
                    "apply_mod" : 1,
                    "parent_armature" : 1,
                    "sub_level" : 1
                },
                "keentools_fb_settings" : {},
                "virtucamera" : {},
                "by_tool" : {},
                "ssgi_tool" : {},
                "print_3d" : {},
                "scene_check_set" : {},
                "b_export" : 1,
                "export_path" : "C:\\Users\\julie\\OneDrive\\Documents\\JESSIK\\",
                "s_output" : "exporting..."
            },
            "name" : "Scene",
            "nodes" : [
                0
            ]
        }
    ],
    "nodes" : [
        {
            "mesh" : 0,
            "name" : "Cube.033",
            "rotation" : [
                0.06697991490364075,
                0.6998623013496399,
                0.7083838582038879,
                -0.06244014948606491
            ],
            "scale" : [
                0.00618711207062006,
                0.007915054447948933,
                0.00771333510056138
            ]
        }
    ],
    "materials" : [
        {
            "doubleSided" : true,
            "name" : "Material.067",
            "pbrMetallicRoughness" : {
                "baseColorFactor" : [
                    0.28314879536628723,
                    0.3277781903743744,
                    0.428690642118454,
                    1
                ],
                "metallicFactor" : 0,
                "roughnessFactor" : 0.5
            }
        }
    ],
    "meshes" : [
        {
            "name" : "Cube.039",
            "primitives" : [
                {
                    "attributes" : {
                        "POSITION" : 0,
                        "NORMAL" : 1
                    },
                    "indices" : 2,
                    "material" : 0
                }
            ]
        }
    ],
    "accessors" : [
        {
            "bufferView" : 0,
            "componentType" : 5126,
            "count" : 54658,
            "max" : [
                3.9972145557403564,
                1.6021031141281128,
                1.0000001192092896
            ],
            "min" : [
                -4.005931854248047,
                -1.7158957719802856,
                -1.0000001192092896
            ],
            "type" : "VEC3"
        },
        {
            "bufferView" : 1,
            "componentType" : 5126,
            "count" : 54658,
            "type" : "VEC3"
        },
        {
            "bufferView" : 2,
            "componentType" : 5123,
            "count" : 327936,
            "type" : "SCALAR"
        }
    ],
    "bufferViews" : [
        {
            "buffer" : 0,
            "byteLength" : 655896,
            "byteOffset" : 0
        },
        {
            "buffer" : 0,
            "byteLength" : 655896,
            "byteOffset" : 655896
        },
        {
            "buffer" : 0,
            "byteLength" : 655872,
            "byteOffset" : 1311792
        }
    ],
    "buffers" : [
        {
            "byteLength" : 1967664,
            "uri" : "data:application/octet-stream;base64,"
        }
    ]
}
