{
    "asset" : {
        "generator" : "Khronos glTF Blender I/O v1.7.33",
        "version" : "2.0"
    },
    "scene" : 0,
    "scenes" : [
        {
            "extras" : {
                "vr_landmarks" : [
                    {
                        "type" : 0,
                        "base_scale" : 1.0
                    }
                ],
                "skinify" : {
                    "connect_mesh" : 0,
                    "connect_parents" : 0,
                    "generate_all" : 0,
                    "thickness" : 0.800000011920929,
                    "finger_thickness" : 0.25,
                    "apply_mod" : 1,
                    "parent_armature" : 1,
                    "sub_level" : 1
                },
                "keentools_fb_settings" : {},
                "virtucamera" : {},
                "by_tool" : {},
                "ssgi_tool" : {},
                "print_3d" : {},
                "scene_check_set" : {},
                "b_export" : 1,
                "export_path" : "C:\\Users\\julie\\OneDrive\\Documents\\JESSIK\\",
                "s_output" : "exporting..."
            },
            "name" : "Scene",
            "nodes" : [
                0
            ]
        }
    ],
    "nodes" : [
        {
            "mesh" : 0,
            "name" : "Cube.028",
            "rotation" : [
                0.06697991490364075,
                0.6998623013496399,
                0.7083838582038879,
                -0.06244014948606491
            ],
            "scale" : [
                0.0007700249552726746,
                0.0007700248970650136,
                0.0013253935612738132
            ]
        }
    ],
    "materials" : [
        {
            "doubleSided" : true,
            "name" : "Material.071",
            "pbrMetallicRoughness" : {
                "baseColorFactor" : [
                    0.15292617678642273,
                    0.2015562802553177,
                    0.29613831639289856,
                    1
                ],
                "metallicFactor" : 0,
                "roughnessFactor" : 0.5
            }
        }
    ],
    "meshes" : [
        {
            "name" : "Cube.034",
            "primitives" : [
                {
                    "attributes" : {
                        "POSITION" : 0,
                        "NORMAL" : 1
                    },
                    "indices" : 2,
                    "material" : 0
                }
            ]
        }
    ],
    "accessors" : [
        {
            "bufferView" : 0,
            "componentType" : 5126,
            "count" : 34306,
            "max" : [
                32.9332160949707,
                3.767551898956299,
                3.430826425552368
            ],
            "min" : [
                -11.873128890991211,
                -2.8701164722442627,
                -3.4308242797851562
            ],
            "type" : "VEC3"
        },
        {
            "bufferView" : 1,
            "componentType" : 5126,
            "count" : 34306,
            "type" : "VEC3"
        },
        {
            "bufferView" : 2,
            "componentType" : 5123,
            "count" : 205824,
            "type" : "SCALAR"
        }
    ],
    "bufferViews" : [
        {
            "buffer" : 0,
            "byteLength" : 411672,
            "byteOffset" : 0
        },
        {
            "buffer" : 0,
            "byteLength" : 411672,
            "byteOffset" : 411672
        },
        {
            "buffer" : 0,
            "byteLength" : 411648,
            "byteOffset" : 823344
        }
    ],
    "buffers" : [
        {
            "byteLength" : 1234992,
            "uri" : "data:application/octet-stream;base64,"
        }
    ]
}
