{
    "asset" : {
        "generator" : "Khronos glTF Blender I/O v1.7.33",
        "version" : "2.0"
    },
    "scene" : 0,
    "scenes" : [
        {
            "extras" : {
                "vr_landmarks" : [
                    {
                        "type" : 0,
                        "base_scale" : 1.0
                    }
                ],
                "skinify" : {
                    "connect_mesh" : 0,
                    "connect_parents" : 0,
                    "generate_all" : 0,
                    "thickness" : 0.800000011920929,
                    "finger_thickness" : 0.25,
                    "apply_mod" : 1,
                    "parent_armature" : 1,
                    "sub_level" : 1
                },
                "keentools_fb_settings" : {},
                "virtucamera" : {},
                "by_tool" : {},
                "ssgi_tool" : {},
                "print_3d" : {},
                "scene_check_set" : {},
                "b_export" : 1,
                "export_path" : "C:\\Users\\julie\\OneDrive\\Documents\\JESSIK\\",
                "s_output" : "exporting..."
            },
            "name" : "Scene",
            "nodes" : [
                0
            ]
        }
    ],
    "nodes" : [
        {
            "mesh" : 0,
            "name" : "Cube.047",
            "scale" : [
                0.23669075965881348,
                0.13801561295986176,
                0.33942899107933044
            ]
        }
    ],
    "materials" : [
        {
            "doubleSided" : true,
            "name" : "Material.037",
            "pbrMetallicRoughness" : {
                "baseColorFactor" : [
                    0.23177027702331543,
                    0.1442895233631134,
                    0.09254509210586548,
                    1
                ],
                "metallicFactor" : 0,
                "roughnessFactor" : 0.5
            }
        }
    ],
    "meshes" : [
        {
            "name" : "Cube.053",
            "primitives" : [
                {
                    "attributes" : {
                        "POSITION" : 0,
                        "NORMAL" : 1,
                        "TANGENT" : 2,
                        "TEXCOORD_0" : 3
                    },
                    "indices" : 4,
                    "material" : 0
                }
            ]
        }
    ],
    "accessors" : [
        {
            "bufferView" : 0,
            "componentType" : 5126,
            "count" : 2200,
            "max" : [
                1.1402385234832764,
                1.209066390991211,
                1.169823408126831
            ],
            "min" : [
                -0.9876017570495605,
                -1.1365300416946411,
                -0.915732204914093
            ],
            "type" : "VEC3"
        },
        {
            "bufferView" : 1,
            "componentType" : 5126,
            "count" : 2200,
            "type" : "VEC3"
        },
        {
            "bufferView" : 2,
            "componentType" : 5126,
            "count" : 2200,
            "type" : "VEC4"
        },
        {
            "bufferView" : 3,
            "componentType" : 5126,
            "count" : 2200,
            "type" : "VEC2"
        },
        {
            "bufferView" : 4,
            "componentType" : 5123,
            "count" : 4614,
            "type" : "SCALAR"
        }
    ],
    "bufferViews" : [
        {
            "buffer" : 0,
            "byteLength" : 26400,
            "byteOffset" : 0
        },
        {
            "buffer" : 0,
            "byteLength" : 26400,
            "byteOffset" : 26400
        },
        {
            "buffer" : 0,
            "byteLength" : 35200,
            "byteOffset" : 52800
        },
        {
            "buffer" : 0,
            "byteLength" : 17600,
            "byteOffset" : 88000
        },
        {
            "buffer" : 0,
            "byteLength" : 9228,
            "byteOffset" : 105600
        }
    ],
    "buffers" : [
        {
            "byteLength" : 114828,
            "uri" : "data:application/octet-stream;base64,"
        }
    ]
}
