{
    "asset" : {
        "generator" : "Khronos glTF Blender I/O v1.7.33",
        "version" : "2.0"
    },
    "scene" : 0,
    "scenes" : [
        {
            "extras" : {
                "vr_landmarks" : [
                    {
                        "type" : 0,
                        "base_scale" : 1.0
                    }
                ],
                "skinify" : {
                    "connect_mesh" : 0,
                    "connect_parents" : 0,
                    "generate_all" : 0,
                    "thickness" : 0.800000011920929,
                    "finger_thickness" : 0.25,
                    "apply_mod" : 1,
                    "parent_armature" : 1,
                    "sub_level" : 1
                },
                "keentools_fb_settings" : {},
                "virtucamera" : {},
                "by_tool" : {},
                "ssgi_tool" : {},
                "print_3d" : {},
                "scene_check_set" : {},
                "b_export" : 1,
                "export_path" : "C:\\Users\\julie\\OneDrive\\Documents\\JESSIK\\",
                "s_output" : "exporting..."
            },
            "name" : "Scene",
            "nodes" : [
                0
            ]
        }
    ],
    "nodes" : [
        {
            "mesh" : 0,
            "name" : "Cube.045",
            "rotation" : [
                0.12918123602867126,
                0.6910905838012695,
                0.6999827027320862,
                -0.12542040646076202
            ],
            "scale" : [
                0.0029815444722771645,
                0.005743604619055986,
                0.0071840547025203705
            ]
        }
    ],
    "materials" : [
        {
            "doubleSided" : true,
            "name" : "Material.081",
            "pbrMetallicRoughness" : {
                "baseColorFactor" : [
                    0.1384316384792328,
                    0.18116427958011627,
                    0.26225075125694275,
                    1
                ],
                "metallicFactor" : 0,
                "roughnessFactor" : 0.5
            }
        }
    ],
    "meshes" : [
        {
            "name" : "Cube.051",
            "primitives" : [
                {
                    "attributes" : {
                        "POSITION" : 0,
                        "NORMAL" : 1,
                        "TANGENT" : 2,
                        "TEXCOORD_0" : 3
                    },
                    "indices" : 4,
                    "material" : 0
                }
            ]
        }
    ],
    "accessors" : [
        {
            "bufferView" : 0,
            "componentType" : 5126,
            "count" : 3117,
            "max" : [
                0.940327525138855,
                6.138021469116211,
                1.228157877922058
            ],
            "min" : [
                -1.2126295566558838,
                -5.642106056213379,
                -1.2281577587127686
            ],
            "type" : "VEC3"
        },
        {
            "bufferView" : 1,
            "componentType" : 5126,
            "count" : 3117,
            "type" : "VEC3"
        },
        {
            "bufferView" : 2,
            "componentType" : 5126,
            "count" : 3117,
            "type" : "VEC4"
        },
        {
            "bufferView" : 3,
            "componentType" : 5126,
            "count" : 3117,
            "type" : "VEC2"
        },
        {
            "bufferView" : 4,
            "componentType" : 5123,
            "count" : 16128,
            "type" : "SCALAR"
        }
    ],
    "bufferViews" : [
        {
            "buffer" : 0,
            "byteLength" : 37404,
            "byteOffset" : 0
        },
        {
            "buffer" : 0,
            "byteLength" : 37404,
            "byteOffset" : 37404
        },
        {
            "buffer" : 0,
            "byteLength" : 49872,
            "byteOffset" : 74808
        },
        {
            "buffer" : 0,
            "byteLength" : 24936,
            "byteOffset" : 124680
        },
        {
            "buffer" : 0,
            "byteLength" : 32256,
            "byteOffset" : 149616
        }
    ],
    "buffers" : [
        {
            "byteLength" : 181872,
            "uri" : "data:application/octet-stream;base64,"
        }
    ]
}
