{
    "asset" : {
        "generator" : "Khronos glTF Blender I/O v1.7.33",
        "version" : "2.0"
    },
    "scene" : 0,
    "scenes" : [
        {
            "extras" : {
                "vr_landmarks" : [
                    {
                        "type" : 0,
                        "base_scale" : 1.0
                    }
                ],
                "skinify" : {
                    "connect_mesh" : 0,
                    "connect_parents" : 0,
                    "generate_all" : 0,
                    "thickness" : 0.800000011920929,
                    "finger_thickness" : 0.25,
                    "apply_mod" : 1,
                    "parent_armature" : 1,
                    "sub_level" : 1
                },
                "keentools_fb_settings" : {},
                "virtucamera" : {},
                "by_tool" : {},
                "ssgi_tool" : {},
                "print_3d" : {},
                "scene_check_set" : {},
                "b_export" : 1,
                "export_path" : "C:\\Users\\julie\\OneDrive\\Documents\\JESSIK\\",
                "s_output" : "exporting..."
            },
            "name" : "Scene",
            "nodes" : [
                0
            ]
        }
    ],
    "nodes" : [
        {
            "mesh" : 0,
            "name" : "Cube.037",
            "rotation" : [
                0.06697991490364075,
                0.6998623013496399,
                0.7083838582038879,
                -0.06244014948606491
            ],
            "scale" : [
                0.010056965053081512,
                0.0075529953464865685,
                0.011788671836256981
            ]
        }
    ],
    "materials" : [
        {
            "doubleSided" : true,
            "name" : "Material.053",
            "pbrMetallicRoughness" : {
                "baseColorFactor" : [
                    0.20507878065109253,
                    0.23074008524417877,
                    0.29177066683769226,
                    1
                ],
                "metallicFactor" : 0,
                "roughnessFactor" : 0.5
            }
        }
    ],
    "meshes" : [
        {
            "name" : "Cube.043",
            "primitives" : [
                {
                    "attributes" : {
                        "POSITION" : 0,
                        "NORMAL" : 1,
                        "TANGENT" : 2,
                        "TEXCOORD_0" : 3
                    },
                    "indices" : 4,
                    "material" : 0
                }
            ]
        }
    ],
    "accessors" : [
        {
            "bufferView" : 0,
            "componentType" : 5126,
            "count" : 53292,
            "max" : [
                4.0734148025512695,
                1.5852851867675781,
                0.9993782043457031
            ],
            "min" : [
                -3.376171112060547,
                -1.3002197742462158,
                -0.9993782043457031
            ],
            "type" : "VEC3"
        },
        {
            "bufferView" : 1,
            "componentType" : 5126,
            "count" : 53292,
            "type" : "VEC3"
        },
        {
            "bufferView" : 2,
            "componentType" : 5126,
            "count" : 53292,
            "type" : "VEC4"
        },
        {
            "bufferView" : 3,
            "componentType" : 5126,
            "count" : 53292,
            "type" : "VEC2"
        },
        {
            "bufferView" : 4,
            "componentType" : 5123,
            "count" : 273408,
            "type" : "SCALAR"
        }
    ],
    "bufferViews" : [
        {
            "buffer" : 0,
            "byteLength" : 639504,
            "byteOffset" : 0
        },
        {
            "buffer" : 0,
            "byteLength" : 639504,
            "byteOffset" : 639504
        },
        {
            "buffer" : 0,
            "byteLength" : 852672,
            "byteOffset" : 1279008
        },
        {
            "buffer" : 0,
            "byteLength" : 426336,
            "byteOffset" : 2131680
        },
        {
            "buffer" : 0,
            "byteLength" : 546816,
            "byteOffset" : 2558016
        }
    ],
    "buffers" : [
        {
            "byteLength" : 3104832,
            "uri" : "data:application/octet-stream;base64,"
        }
    ]
}
