{
    "asset" : {
        "generator" : "Khronos glTF Blender I/O v1.7.33",
        "version" : "2.0"
    },
    "scene" : 0,
    "scenes" : [
        {
            "extras" : {
                "vr_landmarks" : [
                    {
                        "type" : 0,
                        "base_scale" : 1.0
                    }
                ],
                "skinify" : {
                    "connect_mesh" : 0,
                    "connect_parents" : 0,
                    "generate_all" : 0,
                    "thickness" : 0.800000011920929,
                    "finger_thickness" : 0.25,
                    "apply_mod" : 1,
                    "parent_armature" : 1,
                    "sub_level" : 1
                },
                "keentools_fb_settings" : {},
                "virtucamera" : {},
                "by_tool" : {},
                "ssgi_tool" : {},
                "print_3d" : {},
                "scene_check_set" : {},
                "b_export" : 1,
                "export_path" : "C:\\Users\\julie\\OneDrive\\Documents\\JESSIK\\",
                "s_output" : "exporting..."
            },
            "name" : "Scene",
            "nodes" : [
                0
            ]
        }
    ],
    "nodes" : [
        {
            "mesh" : 0,
            "name" : "Cube.051",
            "rotation" : [
                0,
                -0.7071755528450012,
                0,
                0.7070380449295044
            ],
            "scale" : [
                1.76138174533844,
                0.8523346781730652,
                0.10161644220352173
            ]
        }
    ],
    "materials" : [
        {
            "doubleSided" : true,
            "name" : "Material.012",
            "pbrMetallicRoughness" : {
                "baseColorFactor" : [
                    0.40435776114463806,
                    0.26605603098869324,
                    0.14695017039775848,
                    1
                ],
                "metallicFactor" : 0,
                "roughnessFactor" : 0.5
            }
        }
    ],
    "meshes" : [
        {
            "name" : "Cube.006",
            "primitives" : [
                {
                    "attributes" : {
                        "POSITION" : 0,
                        "NORMAL" : 1,
                        "TEXCOORD_0" : 2
                    },
                    "indices" : 3,
                    "material" : 0
                }
            ]
        }
    ],
    "accessors" : [
        {
            "bufferView" : 0,
            "componentType" : 5126,
            "count" : 558,
            "max" : [
                1.1445938348770142,
                0.947941780090332,
                0.9898891448974609
            ],
            "min" : [
                -1.2625477313995361,
                -1.052058219909668,
                -1.0103447437286377
            ],
            "type" : "VEC3"
        },
        {
            "bufferView" : 1,
            "componentType" : 5126,
            "count" : 558,
            "type" : "VEC3"
        },
        {
            "bufferView" : 2,
            "componentType" : 5126,
            "count" : 558,
            "type" : "VEC2"
        },
        {
            "bufferView" : 3,
            "componentType" : 5123,
            "count" : 1338,
            "type" : "SCALAR"
        }
    ],
    "bufferViews" : [
        {
            "buffer" : 0,
            "byteLength" : 6696,
            "byteOffset" : 0
        },
        {
            "buffer" : 0,
            "byteLength" : 6696,
            "byteOffset" : 6696
        },
        {
            "buffer" : 0,
            "byteLength" : 4464,
            "byteOffset" : 13392
        },
        {
            "buffer" : 0,
            "byteLength" : 2676,
            "byteOffset" : 17856
        }
    ],
    "buffers" : [
        {
            "byteLength" : 20532,
            "uri" : "data:application/octet-stream;base64,"
        }
    ]
}
