{
    "asset" : {
        "generator" : "Khronos glTF Blender I/O v1.7.33",
        "version" : "2.0"
    },
    "scene" : 0,
    "scenes" : [
        {
            "extras" : {
                "vr_landmarks" : [
                    {
                        "type" : 0,
                        "base_scale" : 1.0
                    }
                ],
                "skinify" : {
                    "connect_mesh" : 0,
                    "connect_parents" : 0,
                    "generate_all" : 0,
                    "thickness" : 0.800000011920929,
                    "finger_thickness" : 0.25,
                    "apply_mod" : 1,
                    "parent_armature" : 1,
                    "sub_level" : 1
                },
                "keentools_fb_settings" : {},
                "virtucamera" : {},
                "by_tool" : {},
                "ssgi_tool" : {},
                "print_3d" : {},
                "scene_check_set" : {},
                "b_export" : 1,
                "export_path" : "C:\\Users\\julie\\OneDrive\\Documents\\JESSIK\\",
                "s_output" : "exporting..."
            },
            "name" : "Scene",
            "nodes" : [
                0
            ]
        }
    ],
    "nodes" : [
        {
            "mesh" : 0,
            "name" : "Cube.042",
            "rotation" : [
                0.05716211348772049,
                0.7007325887680054,
                0.7091894745826721,
                -0.05250324681401253
            ],
            "scale" : [
                0.0058180405758321285,
                0.005818040110170841,
                0.007304858881980181
            ]
        }
    ],
    "materials" : [
        {
            "doubleSided" : true,
            "name" : "Material.063",
            "pbrMetallicRoughness" : {
                "baseColorFactor" : [
                    0.23455063998699188,
                    0.29177066683769226,
                    0.41254276037216187,
                    1
                ],
                "metallicFactor" : 0,
                "roughnessFactor" : 0.5
            }
        }
    ],
    "meshes" : [
        {
            "name" : "Cube.048",
            "primitives" : [
                {
                    "attributes" : {
                        "POSITION" : 0,
                        "NORMAL" : 1,
                        "TANGENT" : 2,
                        "TEXCOORD_0" : 3
                    },
                    "indices" : 4,
                    "material" : 0
                }
            ]
        }
    ],
    "accessors" : [
        {
            "bufferView" : 0,
            "componentType" : 5126,
            "count" : 2354,
            "max" : [
                4.363466739654541,
                1.0085058212280273,
                0.9869554042816162
            ],
            "min" : [
                -4.3039870262146,
                -0.6899985074996948,
                -0.986955463886261
            ],
            "type" : "VEC3"
        },
        {
            "bufferView" : 1,
            "componentType" : 5126,
            "count" : 2354,
            "type" : "VEC3"
        },
        {
            "bufferView" : 2,
            "componentType" : 5126,
            "count" : 2354,
            "type" : "VEC4"
        },
        {
            "bufferView" : 3,
            "componentType" : 5126,
            "count" : 2354,
            "type" : "VEC2"
        },
        {
            "bufferView" : 4,
            "componentType" : 5123,
            "count" : 11520,
            "type" : "SCALAR"
        }
    ],
    "bufferViews" : [
        {
            "buffer" : 0,
            "byteLength" : 28248,
            "byteOffset" : 0
        },
        {
            "buffer" : 0,
            "byteLength" : 28248,
            "byteOffset" : 28248
        },
        {
            "buffer" : 0,
            "byteLength" : 37664,
            "byteOffset" : 56496
        },
        {
            "buffer" : 0,
            "byteLength" : 18832,
            "byteOffset" : 94160
        },
        {
            "buffer" : 0,
            "byteLength" : 23040,
            "byteOffset" : 112992
        }
    ],
    "buffers" : [
        {
            "byteLength" : 136032,
            "uri" : "data:application/octet-stream;base64,"
        }
    ]
}
