{
    "asset" : {
        "generator" : "Khronos glTF Blender I/O v1.7.33",
        "version" : "2.0"
    },
    "scene" : 0,
    "scenes" : [
        {
            "extras" : {
                "vr_landmarks" : [
                    {
                        "type" : 0,
                        "base_scale" : 1.0
                    }
                ],
                "skinify" : {
                    "connect_mesh" : 0,
                    "connect_parents" : 0,
                    "generate_all" : 0,
                    "thickness" : 0.800000011920929,
                    "finger_thickness" : 0.25,
                    "apply_mod" : 1,
                    "parent_armature" : 1,
                    "sub_level" : 1
                },
                "keentools_fb_settings" : {},
                "virtucamera" : {},
                "by_tool" : {},
                "ssgi_tool" : {},
                "print_3d" : {},
                "scene_check_set" : {},
                "b_export" : 1,
                "export_path" : "C:\\Users\\julie\\OneDrive\\Documents\\JESSIK\\",
                "s_output" : "exporting..."
            },
            "name" : "Scene",
            "nodes" : [
                0
            ]
        }
    ],
    "nodes" : [
        {
            "mesh" : 0,
            "name" : "Cube.046",
            "rotation" : [
                0.11114950478076935,
                0.6942189931869507,
                0.703009843826294,
                -0.1071586012840271
            ],
            "scale" : [
                0.01068139635026455,
                0.010681395418941975,
                0.009290201589465141
            ]
        }
    ],
    "materials" : [
        {
            "doubleSided" : true,
            "name" : "Material.054",
            "pbrMetallicRoughness" : {
                "baseColorFactor" : [
                    0.20507878065109253,
                    0.23074008524417877,
                    0.2874409258365631,
                    1
                ],
                "metallicFactor" : 0,
                "roughnessFactor" : 0.5
            }
        }
    ],
    "meshes" : [
        {
            "name" : "Cube.052",
            "primitives" : [
                {
                    "attributes" : {
                        "POSITION" : 0,
                        "NORMAL" : 1,
                        "TANGENT" : 2,
                        "TEXCOORD_0" : 3
                    },
                    "indices" : 4,
                    "material" : 0
                }
            ]
        }
    ],
    "accessors" : [
        {
            "bufferView" : 0,
            "componentType" : 5126,
            "count" : 12508,
            "max" : [
                7.204300880432129,
                2.1926116943359375,
                1.0000008344650269
            ],
            "min" : [
                -8.746315002441406,
                -4.286725044250488,
                -1.0000005960464478
            ],
            "type" : "VEC3"
        },
        {
            "bufferView" : 1,
            "componentType" : 5126,
            "count" : 12508,
            "type" : "VEC3"
        },
        {
            "bufferView" : 2,
            "componentType" : 5126,
            "count" : 12508,
            "type" : "VEC4"
        },
        {
            "bufferView" : 3,
            "componentType" : 5126,
            "count" : 12508,
            "type" : "VEC2"
        },
        {
            "bufferView" : 4,
            "componentType" : 5123,
            "count" : 69120,
            "type" : "SCALAR"
        }
    ],
    "bufferViews" : [
        {
            "buffer" : 0,
            "byteLength" : 150096,
            "byteOffset" : 0
        },
        {
            "buffer" : 0,
            "byteLength" : 150096,
            "byteOffset" : 150096
        },
        {
            "buffer" : 0,
            "byteLength" : 200128,
            "byteOffset" : 300192
        },
        {
            "buffer" : 0,
            "byteLength" : 100064,
            "byteOffset" : 500320
        },
        {
            "buffer" : 0,
            "byteLength" : 138240,
            "byteOffset" : 600384
        }
    ],
    "buffers" : [
        {
            "byteLength" : 738624,
            "uri" : "data:application/octet-stream;base64,"
        }
    ]
}
