{
    "asset" : {
        "generator" : "Khronos glTF Blender I/O v1.7.33",
        "version" : "2.0"
    },
    "scene" : 0,
    "scenes" : [
        {
            "extras" : {
                "vr_landmarks" : [
                    {
                        "type" : 0,
                        "base_scale" : 1.0
                    }
                ],
                "skinify" : {
                    "connect_mesh" : 0,
                    "connect_parents" : 0,
                    "generate_all" : 0,
                    "thickness" : 0.800000011920929,
                    "finger_thickness" : 0.25,
                    "apply_mod" : 1,
                    "parent_armature" : 1,
                    "sub_level" : 1
                },
                "keentools_fb_settings" : {},
                "virtucamera" : {},
                "by_tool" : {},
                "ssgi_tool" : {},
                "print_3d" : {},
                "scene_check_set" : {},
                "b_export" : 1,
                "export_path" : "C:\\Users\\julie\\OneDrive\\Documents\\JESSIK\\",
                "s_output" : "exporting..."
            },
            "name" : "Scene",
            "nodes" : [
                0
            ]
        }
    ],
    "nodes" : [
        {
            "mesh" : 0,
            "name" : "Cube.041",
            "rotation" : [
                0.08420778810977936,
                0.6979992389678955,
                0.7066295742988586,
                -0.0798795223236084
            ],
            "scale" : [
                0.004342616535723209,
                0.004342617001384497,
                0.006531979888677597
            ]
        }
    ],
    "materials" : [
        {
            "doubleSided" : true,
            "name" : "Material.062",
            "pbrMetallicRoughness" : {
                "baseColorFactor" : [
                    0.23074008524417877,
                    0.2874409258365631,
                    0.40197786688804626,
                    1
                ],
                "metallicFactor" : 0,
                "roughnessFactor" : 0.5
            }
        }
    ],
    "meshes" : [
        {
            "name" : "Cube.047",
            "primitives" : [
                {
                    "attributes" : {
                        "POSITION" : 0,
                        "NORMAL" : 1
                    },
                    "indices" : 2,
                    "material" : 0
                }
            ]
        }
    ],
    "accessors" : [
        {
            "bufferView" : 0,
            "componentType" : 5126,
            "count" : 15234,
            "max" : [
                2.9385263919830322,
                4.031481742858887,
                1.1779824495315552
            ],
            "min" : [
                -9.551338195800781,
                -2.9935667514801025,
                -1.1779824495315552
            ],
            "type" : "VEC3"
        },
        {
            "bufferView" : 1,
            "componentType" : 5126,
            "count" : 15234,
            "type" : "VEC3"
        },
        {
            "bufferView" : 2,
            "componentType" : 5123,
            "count" : 91392,
            "type" : "SCALAR"
        }
    ],
    "bufferViews" : [
        {
            "buffer" : 0,
            "byteLength" : 182808,
            "byteOffset" : 0
        },
        {
            "buffer" : 0,
            "byteLength" : 182808,
            "byteOffset" : 182808
        },
        {
            "buffer" : 0,
            "byteLength" : 182784,
            "byteOffset" : 365616
        }
    ],
    "buffers" : [
        {
            "byteLength" : 548400,
            "uri" : "data:application/octet-stream;base64,"
        }
    ]
}
