{
    "asset" : {
        "generator" : "Khronos glTF Blender I/O v1.7.33",
        "version" : "2.0"
    },
    "scene" : 0,
    "scenes" : [
        {
            "extras" : {
                "vr_landmarks" : [
                    {
                        "type" : 0,
                        "base_scale" : 1.0
                    }
                ],
                "skinify" : {
                    "connect_mesh" : 0,
                    "connect_parents" : 0,
                    "generate_all" : 0,
                    "thickness" : 0.800000011920929,
                    "finger_thickness" : 0.25,
                    "apply_mod" : 1,
                    "parent_armature" : 1,
                    "sub_level" : 1
                },
                "keentools_fb_settings" : {},
                "virtucamera" : {},
                "by_tool" : {},
                "ssgi_tool" : {},
                "print_3d" : {},
                "scene_check_set" : {},
                "b_export" : 1,
                "export_path" : "C:\\Users\\julie\\OneDrive\\Documents\\JESSIK\\",
                "s_output" : "exporting..."
            },
            "name" : "Scene",
            "nodes" : [
                0
            ]
        }
    ],
    "nodes" : [
        {
            "mesh" : 0,
            "name" : "Cube.030",
            "rotation" : [
                0.265092670917511,
                0.6511674523353577,
                0.6606341004371643,
                -0.26319095492362976
            ],
            "scale" : [
                0.0028165983967483044,
                0.0028165983967483044,
                0.0007149139419198036
            ]
        }
    ],
    "materials" : [
        {
            "doubleSided" : true,
            "name" : "Material.069",
            "pbrMetallicRoughness" : {
                "baseColorFactor" : [
                    0.15292617678642273,
                    0.2033175230026245,
                    0.2939544916152954,
                    1
                ],
                "metallicFactor" : 0,
                "roughnessFactor" : 0.5
            }
        }
    ],
    "meshes" : [
        {
            "name" : "Cube.036",
            "primitives" : [
                {
                    "attributes" : {
                        "POSITION" : 0,
                        "NORMAL" : 1
                    },
                    "indices" : 2,
                    "material" : 0
                }
            ]
        }
    ],
    "accessors" : [
        {
            "bufferView" : 0,
            "componentType" : 5126,
            "count" : 10754,
            "max" : [
                5.126147747039795,
                2.394587278366089,
                4.857072830200195
            ],
            "min" : [
                -3.3278870582580566,
                -2.515230655670166,
                -1.767434000968933
            ],
            "type" : "VEC3"
        },
        {
            "bufferView" : 1,
            "componentType" : 5126,
            "count" : 10754,
            "type" : "VEC3"
        },
        {
            "bufferView" : 2,
            "componentType" : 5123,
            "count" : 64512,
            "type" : "SCALAR"
        }
    ],
    "bufferViews" : [
        {
            "buffer" : 0,
            "byteLength" : 129048,
            "byteOffset" : 0
        },
        {
            "buffer" : 0,
            "byteLength" : 129048,
            "byteOffset" : 129048
        },
        {
            "buffer" : 0,
            "byteLength" : 129024,
            "byteOffset" : 258096
        }
    ],
    "buffers" : [
        {
            "byteLength" : 387120,
            "uri" : "data:application/octet-stream;base64,"
        }
    ]
}
