{
    "asset" : {
        "generator" : "Khronos glTF Blender I/O v1.7.33",
        "version" : "2.0"
    },
    "scene" : 0,
    "scenes" : [
        {
            "extras" : {
                "vr_landmarks" : [
                    {
                        "type" : 0,
                        "base_scale" : 1.0
                    }
                ],
                "skinify" : {
                    "connect_mesh" : 0,
                    "connect_parents" : 0,
                    "generate_all" : 0,
                    "thickness" : 0.800000011920929,
                    "finger_thickness" : 0.25,
                    "apply_mod" : 1,
                    "parent_armature" : 1,
                    "sub_level" : 1
                },
                "keentools_fb_settings" : {},
                "virtucamera" : {},
                "by_tool" : {},
                "ssgi_tool" : {},
                "print_3d" : {},
                "scene_check_set" : {},
                "b_export" : 1,
                "export_path" : "C:\\Users\\julie\\OneDrive\\Documents\\JESSIK\\",
                "s_output" : "exporting..."
            },
            "name" : "Scene",
            "nodes" : [
                0
            ]
        }
    ],
    "nodes" : [
        {
            "mesh" : 0,
            "name" : "Cylinder.002",
            "rotation" : [
                -0.4475143849849701,
                0.5422394275665283,
                0.5450555682182312,
                0.4567512571811676
            ],
            "scale" : [
                0.001484980108216405,
                0.07444727420806885,
                0.001484979991801083
            ]
        }
    ],
    "materials" : [
        {
            "doubleSided" : true,
            "name" : "Material.065",
            "pbrMetallicRoughness" : {
                "baseColorFactor" : [
                    0.28314879536628723,
                    0.33245155215263367,
                    0.4396572709083557,
                    1
                ],
                "metallicFactor" : 0,
                "roughnessFactor" : 0.5
            }
        }
    ],
    "meshes" : [
        {
            "name" : "Cylinder.015",
            "primitives" : [
                {
                    "attributes" : {
                        "POSITION" : 0,
                        "NORMAL" : 1
                    },
                    "indices" : 2,
                    "material" : 0
                }
            ]
        }
    ],
    "accessors" : [
        {
            "bufferView" : 0,
            "componentType" : 5126,
            "count" : 2818,
            "max" : [
                0.9023846387863159,
                0.9936352372169495,
                0.9023712873458862
            ],
            "min" : [
                -0.9023749828338623,
                -1.0111583471298218,
                -0.9023698568344116
            ],
            "type" : "VEC3"
        },
        {
            "bufferView" : 1,
            "componentType" : 5126,
            "count" : 2818,
            "type" : "VEC3"
        },
        {
            "bufferView" : 2,
            "componentType" : 5123,
            "count" : 16896,
            "type" : "SCALAR"
        }
    ],
    "bufferViews" : [
        {
            "buffer" : 0,
            "byteLength" : 33816,
            "byteOffset" : 0
        },
        {
            "buffer" : 0,
            "byteLength" : 33816,
            "byteOffset" : 33816
        },
        {
            "buffer" : 0,
            "byteLength" : 33792,
            "byteOffset" : 67632
        }
    ],
    "buffers" : [
        {
            "byteLength" : 101424,
            "uri" : "data:application/octet-stream;base64,"
        }
    ]
}
