{
    "asset" : {
        "generator" : "Khronos glTF Blender I/O v1.7.33",
        "version" : "2.0"
    },
    "scene" : 0,
    "scenes" : [
        {
            "extras" : {
                "vr_landmarks" : [
                    {
                        "type" : 0,
                        "base_scale" : 1.0
                    }
                ],
                "skinify" : {
                    "connect_mesh" : 0,
                    "connect_parents" : 0,
                    "generate_all" : 0,
                    "thickness" : 0.800000011920929,
                    "finger_thickness" : 0.25,
                    "apply_mod" : 1,
                    "parent_armature" : 1,
                    "sub_level" : 1
                },
                "keentools_fb_settings" : {},
                "virtucamera" : {},
                "by_tool" : {},
                "ssgi_tool" : {},
                "print_3d" : {},
                "scene_check_set" : {},
                "b_export" : 1,
                "export_path" : "C:\\Users\\julie\\OneDrive\\Documents\\JESSIK\\",
                "s_output" : "exporting..."
            },
            "name" : "Scene",
            "nodes" : [
                0
            ]
        }
    ],
    "nodes" : [
        {
            "mesh" : 0,
            "name" : "Cylinder.001",
            "rotation" : [
                0.768833339214325,
                -0.0065319291315972805,
                0.6394127607345581,
                -0.0019910221453756094
            ],
            "scale" : [
                0.004399648867547512,
                0.0019513035658746958,
                0.004399648867547512
            ]
        }
    ],
    "materials" : [
        {
            "doubleSided" : true,
            "name" : "Material.078",
            "pbrMetallicRoughness" : {
                "baseColorFactor" : [
                    0.21223078668117523,
                    0.26635563373565674,
                    0.38642948865890503,
                    1
                ],
                "metallicFactor" : 0,
                "roughnessFactor" : 0.5
            }
        }
    ],
    "meshes" : [
        {
            "name" : "Cylinder.016",
            "primitives" : [
                {
                    "attributes" : {
                        "POSITION" : 0,
                        "NORMAL" : 1
                    },
                    "indices" : 2,
                    "material" : 0
                }
            ]
        }
    ],
    "accessors" : [
        {
            "bufferView" : 0,
            "componentType" : 5126,
            "count" : 5080,
            "max" : [
                0.8792707920074463,
                1.3492714166641235,
                0.8792707324028015
            ],
            "min" : [
                -0.8792707920074463,
                -0.735966145992279,
                -0.8792707324028015
            ],
            "type" : "VEC3"
        },
        {
            "bufferView" : 1,
            "componentType" : 5126,
            "count" : 5080,
            "type" : "VEC3"
        },
        {
            "bufferView" : 2,
            "componentType" : 5123,
            "count" : 7680,
            "type" : "SCALAR"
        }
    ],
    "bufferViews" : [
        {
            "buffer" : 0,
            "byteLength" : 60960,
            "byteOffset" : 0
        },
        {
            "buffer" : 0,
            "byteLength" : 60960,
            "byteOffset" : 60960
        },
        {
            "buffer" : 0,
            "byteLength" : 15360,
            "byteOffset" : 121920
        }
    ],
    "buffers" : [
        {
            "byteLength" : 137280,
            "uri" : "data:application/octet-stream;base64,"
        }
    ]
}
