{
    "asset" : {
        "generator" : "Khronos glTF Blender I/O v1.7.33",
        "version" : "2.0"
    },
    "scene" : 0,
    "scenes" : [
        {
            "extras" : {
                "vr_landmarks" : [
                    {
                        "type" : 0,
                        "base_scale" : 1.0
                    }
                ],
                "skinify" : {
                    "connect_mesh" : 0,
                    "connect_parents" : 0,
                    "generate_all" : 0,
                    "thickness" : 0.800000011920929,
                    "finger_thickness" : 0.25,
                    "apply_mod" : 1,
                    "parent_armature" : 1,
                    "sub_level" : 1
                },
                "keentools_fb_settings" : {},
                "virtucamera" : {},
                "by_tool" : {},
                "ssgi_tool" : {},
                "print_3d" : {},
                "scene_check_set" : {},
                "b_export" : 1,
                "export_path" : "C:\\Users\\julie\\OneDrive\\Documents\\JESSIK\\",
                "s_output" : "exporting..."
            },
            "name" : "Scene",
            "nodes" : [
                0
            ]
        }
    ],
    "nodes" : [
        {
            "mesh" : 0,
            "name" : "Plane.003",
            "rotation" : [
                0.006024993024766445,
                0.09151339530944824,
                -0.0032111324835568666,
                0.9957804679870605
            ],
            "scale" : [
                0.07413294911384583,
                0.057690273970365524,
                0.0029135041404515505
            ]
        }
    ],
    "materials" : [
        {
            "doubleSided" : true,
            "name" : "Material.061",
            "pbrMetallicRoughness" : {
                "baseColorFactor" : [
                    0.15896087884902954,
                    0.21223078668117523,
                    0.30946895480155945,
                    1
                ],
                "metallicFactor" : 0,
                "roughnessFactor" : 0.5
            }
        }
    ],
    "meshes" : [
        {
            "name" : "Plane.005",
            "primitives" : [
                {
                    "attributes" : {
                        "POSITION" : 0,
                        "NORMAL" : 1
                    },
                    "indices" : 2,
                    "material" : 0
                }
            ]
        }
    ],
    "accessors" : [
        {
            "bufferView" : 0,
            "componentType" : 5126,
            "count" : 20898,
            "max" : [
                0.9222822785377502,
                0.04293929785490036,
                3.245295524597168
            ],
            "min" : [
                -0.7133776545524597,
                -0.07944034039974213,
                -4.176848411560059
            ],
            "type" : "VEC3"
        },
        {
            "bufferView" : 1,
            "componentType" : 5126,
            "count" : 20898,
            "type" : "VEC3"
        },
        {
            "bufferView" : 2,
            "componentType" : 5123,
            "count" : 125376,
            "type" : "SCALAR"
        }
    ],
    "bufferViews" : [
        {
            "buffer" : 0,
            "byteLength" : 250776,
            "byteOffset" : 0
        },
        {
            "buffer" : 0,
            "byteLength" : 250776,
            "byteOffset" : 250776
        },
        {
            "buffer" : 0,
            "byteLength" : 250752,
            "byteOffset" : 501552
        }
    ],
    "buffers" : [
        {
            "byteLength" : 752304,
            "uri" : "data:application/octet-stream;base64,"
        }
    ]
}
