{
    "asset" : {
        "generator" : "Khronos glTF Blender I/O v1.7.33",
        "version" : "2.0"
    },
    "scene" : 0,
    "scenes" : [
        {
            "extras" : {
                "vr_landmarks" : [
                    {
                        "type" : 0,
                        "base_scale" : 1.0
                    }
                ],
                "skinify" : {
                    "connect_mesh" : 0,
                    "connect_parents" : 0,
                    "generate_all" : 0,
                    "thickness" : 0.800000011920929,
                    "finger_thickness" : 0.25,
                    "apply_mod" : 1,
                    "parent_armature" : 1,
                    "sub_level" : 1
                },
                "keentools_fb_settings" : {},
                "virtucamera" : {},
                "by_tool" : {},
                "ssgi_tool" : {},
                "print_3d" : {},
                "scene_check_set" : {},
                "b_export" : 1,
                "export_path" : "C:\\Users\\julie\\OneDrive\\Documents\\JESSIK\\",
                "s_output" : "exporting..."
            },
            "name" : "Scene",
            "nodes" : [
                0
            ]
        }
    ],
    "nodes" : [
        {
            "mesh" : 0,
            "name" : "Plane.004",
            "rotation" : [
                0.09151380509138107,
                -0.006026085000485182,
                0.9957804083824158,
                0.0032101392280310392
            ],
            "scale" : [
                0.06810472905635834,
                0.06718563288450241,
                0.0033930439967662096
            ]
        }
    ],
    "materials" : [
        {
            "doubleSided" : true,
            "name" : "Material.057",
            "pbrMetallicRoughness" : {
                "baseColorFactor" : [
                    0.2541521489620209,
                    0.3049874007701874,
                    0.42326778173446655,
                    1
                ],
                "metallicFactor" : 0,
                "roughnessFactor" : 0.5
            }
        }
    ],
    "meshes" : [
        {
            "name" : "Plane.006",
            "primitives" : [
                {
                    "attributes" : {
                        "POSITION" : 0,
                        "NORMAL" : 1,
                        "TANGENT" : 2,
                        "TEXCOORD_0" : 3
                    },
                    "indices" : 4,
                    "material" : 0
                }
            ]
        }
    ],
    "accessors" : [
        {
            "bufferView" : 0,
            "componentType" : 5126,
            "count" : 48141,
            "max" : [
                1.4968841075897217,
                0.11294721066951752,
                2.814563512802124
            ],
            "min" : [
                -1.1654324531555176,
                -0.1459667980670929,
                -4.458981990814209
            ],
            "type" : "VEC3"
        },
        {
            "bufferView" : 1,
            "componentType" : 5126,
            "count" : 48141,
            "type" : "VEC3"
        },
        {
            "bufferView" : 2,
            "componentType" : 5126,
            "count" : 48141,
            "type" : "VEC4"
        },
        {
            "bufferView" : 3,
            "componentType" : 5126,
            "count" : 48141,
            "type" : "VEC2"
        },
        {
            "bufferView" : 4,
            "componentType" : 5123,
            "count" : 275424,
            "type" : "SCALAR"
        }
    ],
    "bufferViews" : [
        {
            "buffer" : 0,
            "byteLength" : 577692,
            "byteOffset" : 0
        },
        {
            "buffer" : 0,
            "byteLength" : 577692,
            "byteOffset" : 577692
        },
        {
            "buffer" : 0,
            "byteLength" : 770256,
            "byteOffset" : 1155384
        },
        {
            "buffer" : 0,
            "byteLength" : 385128,
            "byteOffset" : 1925640
        },
        {
            "buffer" : 0,
            "byteLength" : 550848,
            "byteOffset" : 2310768
        }
    ],
    "buffers" : [
        {
            "byteLength" : 2861616,
            "uri" : "data:application/octet-stream;base64,"
        }
    ]
}
