{
    "asset" : {
        "generator" : "Khronos glTF Blender I/O v1.7.33",
        "version" : "2.0"
    },
    "scene" : 0,
    "scenes" : [
        {
            "extras" : {
                "vr_landmarks" : [
                    {
                        "type" : 0,
                        "base_scale" : 1.0
                    }
                ],
                "skinify" : {
                    "connect_mesh" : 0,
                    "connect_parents" : 0,
                    "generate_all" : 0,
                    "thickness" : 0.800000011920929,
                    "finger_thickness" : 0.25,
                    "apply_mod" : 1,
                    "parent_armature" : 1,
                    "sub_level" : 1
                },
                "keentools_fb_settings" : {},
                "virtucamera" : {},
                "by_tool" : {},
                "ssgi_tool" : {},
                "print_3d" : {},
                "scene_check_set" : {},
                "b_export" : 1,
                "export_path" : "C:\\Users\\julie\\OneDrive\\Documents\\JESSIK\\",
                "s_output" : "exporting..."
            },
            "name" : "Scene",
            "nodes" : [
                0
            ]
        }
    ],
    "nodes" : [
        {
            "mesh" : 0,
            "name" : "porte",
            "scale" : [
                0.018681200221180916,
                0.36484479904174805,
                0.22884076833724976
            ]
        }
    ],
    "materials" : [
        {
            "doubleSided" : true,
            "name" : "Material.051",
            "pbrMetallicRoughness" : {
                "baseColorFactor" : [
                    0.14995980262756348,
                    0.18782080709934235,
                    0.18782080709934235,
                    1
                ],
                "metallicFactor" : 0,
                "roughnessFactor" : 0.5
            }
        }
    ],
    "meshes" : [
        {
            "name" : "Cube.020",
            "primitives" : [
                {
                    "attributes" : {
                        "POSITION" : 0,
                        "NORMAL" : 1,
                        "TANGENT" : 2,
                        "TEXCOORD_0" : 3
                    },
                    "indices" : 4,
                    "material" : 0
                }
            ]
        }
    ],
    "accessors" : [
        {
            "bufferView" : 0,
            "componentType" : 5126,
            "count" : 262,
            "max" : [
                0.6899834871292114,
                1,
                0.9800000190734863
            ],
            "min" : [
                -1.3100165128707886,
                -1,
                -1.0199999809265137
            ],
            "type" : "VEC3"
        },
        {
            "bufferView" : 1,
            "componentType" : 5126,
            "count" : 262,
            "type" : "VEC3"
        },
        {
            "bufferView" : 2,
            "componentType" : 5126,
            "count" : 262,
            "type" : "VEC4"
        },
        {
            "bufferView" : 3,
            "componentType" : 5126,
            "count" : 262,
            "type" : "VEC2"
        },
        {
            "bufferView" : 4,
            "componentType" : 5123,
            "count" : 588,
            "type" : "SCALAR"
        }
    ],
    "bufferViews" : [
        {
            "buffer" : 0,
            "byteLength" : 3144,
            "byteOffset" : 0
        },
        {
            "buffer" : 0,
            "byteLength" : 3144,
            "byteOffset" : 3144
        },
        {
            "buffer" : 0,
            "byteLength" : 4192,
            "byteOffset" : 6288
        },
        {
            "buffer" : 0,
            "byteLength" : 2096,
            "byteOffset" : 10480
        },
        {
            "buffer" : 0,
            "byteLength" : 1176,
            "byteOffset" : 12576
        }
    ],
    "buffers" : [
        {
            "byteLength" : 13752,
            "uri" : "data:application/octet-stream;base64,"
        }
    ]
}
