{
    "asset" : {
        "generator" : "Khronos glTF Blender I/O v1.7.33",
        "version" : "2.0"
    },
    "scene" : 0,
    "scenes" : [
        {
            "extras" : {
                "vr_landmarks" : [
                    {
                        "type" : 0,
                        "base_scale" : 1.0
                    }
                ],
                "skinify" : {
                    "connect_mesh" : 0,
                    "connect_parents" : 0,
                    "generate_all" : 0,
                    "thickness" : 0.800000011920929,
                    "finger_thickness" : 0.25,
                    "apply_mod" : 1,
                    "parent_armature" : 1,
                    "sub_level" : 1
                },
                "keentools_fb_settings" : {},
                "virtucamera" : {},
                "by_tool" : {},
                "ssgi_tool" : {},
                "print_3d" : {},
                "scene_check_set" : {},
                "b_export" : 1,
                "export_path" : "C:\\Users\\julie\\OneDrive\\Documents\\JESSIK\\",
                "s_output" : "exporting..."
            },
            "name" : "Scene",
            "nodes" : [
                0
            ]
        }
    ],
    "nodes" : [
        {
            "mesh" : 0,
            "name" : "sol",
            "scale" : [
                8.767361640930176,
                5.745220184326172,
                7.556763172149658
            ]
        }
    ],
    "materials" : [
        {
            "doubleSided" : true,
            "name" : "Material.036",
            "pbrMetallicRoughness" : {
                "baseColorFactor" : [
                    0.23698872327804565,
                    0.1829826533794403,
                    0.12886370718479156,
                    1
                ],
                "metallicFactor" : 0
            }
        }
    ],
    "meshes" : [
        {
            "name" : "Plane",
            "primitives" : [
                {
                    "attributes" : {
                        "POSITION" : 0,
                        "NORMAL" : 1,
                        "TANGENT" : 2,
                        "TEXCOORD_0" : 3
                    },
                    "indices" : 4,
                    "material" : 0
                }
            ]
        }
    ],
    "accessors" : [
        {
            "bufferView" : 0,
            "componentType" : 5126,
            "count" : 4,
            "max" : [
                0.9356352090835571,
                0,
                0.8253265619277954
            ],
            "min" : [
                -0.9356352090835571,
                0,
                -0.8253265619277954
            ],
            "type" : "VEC3"
        },
        {
            "bufferView" : 1,
            "componentType" : 5126,
            "count" : 4,
            "type" : "VEC3"
        },
        {
            "bufferView" : 2,
            "componentType" : 5126,
            "count" : 4,
            "type" : "VEC4"
        },
        {
            "bufferView" : 3,
            "componentType" : 5126,
            "count" : 4,
            "type" : "VEC2"
        },
        {
            "bufferView" : 4,
            "componentType" : 5123,
            "count" : 6,
            "type" : "SCALAR"
        }
    ],
    "bufferViews" : [
        {
            "buffer" : 0,
            "byteLength" : 48,
            "byteOffset" : 0
        },
        {
            "buffer" : 0,
            "byteLength" : 48,
            "byteOffset" : 48
        },
        {
            "buffer" : 0,
            "byteLength" : 64,
            "byteOffset" : 96
        },
        {
            "buffer" : 0,
            "byteLength" : 32,
            "byteOffset" : 160
        },
        {
            "buffer" : 0,
            "byteLength" : 12,
            "byteOffset" : 192
        }
    ],
    "buffers" : [
        {
            "byteLength" : 204,
            "uri" : "data:application/octet-stream;base64,"
        }
    ]
}
