{
    "asset" : {
        "generator" : "Khronos glTF Blender I/O v1.7.33",
        "version" : "2.0"
    },
    "scene" : 0,
    "scenes" : [
        {
            "extras" : {
                "vr_landmarks" : [
                    {
                        "type" : 0,
                        "base_scale" : 1.0
                    }
                ],
                "skinify" : {
                    "connect_mesh" : 0,
                    "connect_parents" : 0,
                    "generate_all" : 0,
                    "thickness" : 0.800000011920929,
                    "finger_thickness" : 0.25,
                    "apply_mod" : 1,
                    "parent_armature" : 1,
                    "sub_level" : 1
                },
                "keentools_fb_settings" : {},
                "virtucamera" : {},
                "by_tool" : {},
                "ssgi_tool" : {},
                "print_3d" : {},
                "scene_check_set" : {},
                "b_export" : 1,
                "export_path" : "C:\\Users\\julie\\OneDrive\\Documents\\JESSIK\\",
                "s_output" : "exporting..."
            },
            "name" : "Scene",
            "nodes" : [
                0
            ]
        }
    ],
    "nodes" : [
        {
            "mesh" : 0,
            "name" : "weapon.001",
            "rotation" : [
                0.7018518447875977,
                -0.7063942551612854,
                -0.06897209584712982,
                0.06044866517186165
            ],
            "scale" : [
                0.015245374292135239,
                0.013005892746150494,
                0.013005894608795643
            ]
        }
    ],
    "materials" : [
        {
            "doubleSided" : true,
            "name" : "Material.076",
            "pbrMetallicRoughness" : {
                "baseColorFactor" : [
                    0.21223078668117523,
                    0.26635563373565674,
                    0.39157259464263916,
                    1
                ],
                "metallicFactor" : 0,
                "roughnessFactor" : 0.5
            }
        }
    ],
    "meshes" : [
        {
            "name" : "weapon.001",
            "primitives" : [
                {
                    "attributes" : {
                        "POSITION" : 0,
                        "NORMAL" : 1,
                        "TANGENT" : 2,
                        "TEXCOORD_0" : 3
                    },
                    "indices" : 4,
                    "material" : 0
                }
            ]
        }
    ],
    "accessors" : [
        {
            "bufferView" : 0,
            "componentType" : 5126,
            "count" : 6103,
            "max" : [
                0.5191784501075745,
                0.24024835228919983,
                0.16032955050468445
            ],
            "min" : [
                -0.748188853263855,
                -0.1826515793800354,
                -0.22264978289604187
            ],
            "type" : "VEC3"
        },
        {
            "bufferView" : 1,
            "componentType" : 5126,
            "count" : 6103,
            "type" : "VEC3"
        },
        {
            "bufferView" : 2,
            "componentType" : 5126,
            "count" : 6103,
            "type" : "VEC4"
        },
        {
            "bufferView" : 3,
            "componentType" : 5126,
            "count" : 6103,
            "type" : "VEC2"
        },
        {
            "bufferView" : 4,
            "componentType" : 5123,
            "count" : 32256,
            "type" : "SCALAR"
        }
    ],
    "bufferViews" : [
        {
            "buffer" : 0,
            "byteLength" : 73236,
            "byteOffset" : 0
        },
        {
            "buffer" : 0,
            "byteLength" : 73236,
            "byteOffset" : 73236
        },
        {
            "buffer" : 0,
            "byteLength" : 97648,
            "byteOffset" : 146472
        },
        {
            "buffer" : 0,
            "byteLength" : 48824,
            "byteOffset" : 244120
        },
        {
            "buffer" : 0,
            "byteLength" : 64512,
            "byteOffset" : 292944
        }
    ],
    "buffers" : [
        {
            "byteLength" : 357456,
            "uri" : "data:application/octet-stream;base64,"
        }
    ]
}
